<svg version="1.2" xmlns="http://www.w3.org/2000/svg" viewBox="0 0 512 512" width="512" height="512"><path fill-rule="evenodd" d="M424 168v166H78V168z" style="fill:#fff"/><path fill-rule="evenodd" d="M336 64a143.95 143.95 0 0 1 101.82 42.18A143.95 143.95 0 0 1 480 208v96a143.95 143.95 0 0 1-42.18 101.82A143.95 143.95 0 0 1 336 448H176a143.95 143.95 0 0 1-101.82-42.18A143.95 143.95 0 0 1 32 304v-96a143.95 143.95 0 0 1 42.18-101.82A143.95 143.95 0 0 1 176 64zm-87.1 130.7q-1.31-.87-2.76-1.47-1.44-.6-2.98-.91t-3.11-.32h-.1q-1.57.01-3.11.32t-2.98.91q-1.45.6-2.76 1.47-1.3.88-2.41 1.99L176 249.38l-52.69-52.69q-1.11-1.12-2.42-1.99-1.31-.88-2.77-1.48-1.45-.6-3-.91-1.54-.31-3.12-.31c-2.1-.01-4.19.4-6.13 1.21a16.1 16.1 0 0 0-5.2 3.46 16.1 16.1 0 0 0-3.46 5.2c-.81 1.94-1.22 4.03-1.21 6.13v96c0 4.24 1.69 8.31 4.69 11.31S107.76 320 112 320s8.31-1.69 11.31-4.69S128 308.24 128 304v-57.38l36.69 36.69c1.48 1.49 3.25 2.67 5.19 3.47S173.9 288 176 288s4.18-.42 6.12-1.22 3.71-1.98 5.19-3.47L224 246.62V304c0 4.24 1.69 8.31 4.69 11.31S235.76 320 240 320s8.31-1.69 11.31-4.69S256 308.24 256 304v-96.14q-.01-1.56-.33-3.09-.31-1.52-.92-2.96-.6-1.43-1.47-2.73-.87-1.29-1.97-2.39-1.11-1.11-2.41-1.99M368 208c0-4.24-1.69-8.31-4.69-11.31S356.24 192 352 192s-8.31 1.69-11.31 4.69S336 203.76 336 208v64.1l-22.83-15.96a16.06 16.06 0 0 0-11.96-2.63c-4.18.74-7.89 3.11-10.33 6.59a15.96 15.96 0 0 0-2.63 11.96c.74 4.18 3.11 7.89 6.59 10.32l47.99 33.52q1.97 1.38 4.26 2.12t4.7.77q2.4.03 4.71-.64 2.31-.68 4.32-2.01l50.75-33.53c3.54-2.35 6-6 6.85-10.15a16 16 0 0 0-12.48-18.88c-4.15-.85-8.48-.01-12.02 2.33L368 273.04z" style="fill:#059669"/></svg>